# xmcd
#
# Track frame offsets:
#	182
#	13457
#	26670
#	44792
#	61430
#	75215
#	89577
#	109865
#	125767
#	142062
#	157325
#	180447
#
# Disc length: 2599
#
# Revision: 6
# Processed by: cddbd v1.5.1PL0 Copyright (c) Steve Scherf et al.
# Submitted via: FreeRIP 2.51 
# Normalized: r4:DSETVAR1,TDELIM( - ),TSWAP
#
DISCID=af0a250c
DTITLE=Various Artist - Timeless: Hank Williams Tribute
DYEAR=2001
DGENRE=Country
TTITLE0=Bob Dylan - I Can't Get You Off Of My Mind
TTITLE1=Sheryl Crow - Long Gone Lonesome Blues
TTITLE2=Keb' Mo' - I'm So Lonesome I Could Cry
TTITLE3=Beck - Your Cheating Heart
TTITLE4=Mark Knopfler and His Band with Emmylou Harris - Lost On The River
TTITLE5=Tom Petty - You're Gonna Change (Or I'm Gonna Leave)
TTITLE6=Keith Richards - You Win Again
TTITLE7=Emmylou Harris with Mark Knopfler and His Band - Alone And Forsaken
TTITLE8=Hank III - I'm A Long Gone Daddy
TTITLE9=Ryan Adams - Lovesick Blues
TTITLE10=Lucinda Williams - Cold, Cold Heart
TTITLE11=Johnny Cash - I Dreamed About Mama Last Night
EXTD=
EXTT0=
EXTT1=
EXTT2=
EXTT3=
EXTT4=
EXTT5=
EXTT6=
EXTT7=
EXTT8=
EXTT9=
EXTT10=
EXTT11=
PLAYORDER=
